<svg xmlns="http://www.w3.org/2000/svg" viewBox="0 0 904.7 339.85"><defs><style>.cls-1{fill:#d86050;}.cls-2{fill:#4a596c;}.cls-3{fill:#76bcb9;}.cls-4{fill:#323232;}.cls-5{fill:#dfdfd2;}.cls-6{fill:#fff392;}.cls-7{fill:#fff;}</style></defs><g id="Layer_2" data-name="Layer 2"><g id="Layer_2-2" data-name="Layer 2"><path class="cls-1" d="M900.7,298.3c-5.49-13.59-14.43-26.57-25.18-37.55S851.74,241.8,838.9,234.9c-12.38-6.25-24.73-12.87-38.19-17.84,13.61-5.42,27.92-13,39.48-22.11a111.43,111.43,0,0,0,30.24-36.41c7-14.12,11.43-28.49,15.38-42.43h0l3.66-10.27-10.66-1.48c-19-2.67-37.7,1.15-54.5,7.2s-32.26,14.93-47.14,24c-14.69,9.45-29,19.23-43,29.57-14.22,10-27.93,20.69-42.49,30.18l-2.92,1.89,1.31,3.28a135.38,135.38,0,0,1,6.34,23,63.81,63.81,0,0,1,.86,11.59c.05,3.65-1.1,7.7-2.73,8.34l-2.27,1.81.85,2.13c7.29,18.3,23.62,30.12,39.69,38.69,16.32,8.71,34.09,14.44,51.56,19.09s35.59,8.46,54.12,10.14,37.7,1.34,56.74-4.54l0,0,9.43-2.5Z"/><path class="cls-1" d="M574.28,144.41v.05L574,148l-.69,9.1-10.87-4.39a609.81,609.81,0,0,0-75.56-24.36c-25.64-7-51.82-11.67-78-16.27-13.29-2.31-26.66-4.1-40.06-5.62V10.62A175.86,175.86,0,0,1,385.55,5c17.92-5,37.57-6.83,56.47-2.55l10.74,2.44-4.23,9.39c-3.72,8.28-7.75,11.2-11.76,15.38L424.65,40.38c-3.71,3.67-7.53,7.41-9.46,11.83-2.13,4.39-1.18,9.16,2.87,12,8.34,6.09,18.86-.74,27.46-6.29,9.18-5.43,18.15-13.94,35.2-11.88l11.6,1.38-5,10.68c-5.3,11.34-13.85,15.27-19.5,21.16-2.79,2.78-4.27,6-1.05,9,3,2.86,7.6,4.35,11.91,4.81,8.86,1,17.07-3.28,25.72-6.89,8.23-3.63,20.71-6.6,32,.4l7,4.32L540,97.53c-3.64,7-6.7,7.68-9.85,10.09a60,60,0,0,0-7.29,4.63c-.83,1.07.73,3.26,4.25,3.5,3.23.4,6.74,0,10.68-.26,8,.3,15.1-.88,24.61,3.55,4.79,2.45,8.29,7.76,9.62,12.32A43.16,43.16,0,0,1,574.28,144.41Z"/><path class="cls-2" d="M368.82,215.68V339.83c62.27.3,125.57-3.38,186.26-18.26,31.1-6.11,65.29-7.66,95.07-25.61,13.84-8.94,27.1-18.49,39.36-30a117.23,117.23,0,0,0,8.63-9,72.43,72.43,0,0,0,7.67-10.73c4.44-7.35,7.45-18,3.14-27.47a104.26,104.26,0,0,0-19.51-22c-18.47-15.81-41.17-25-63.15-32.8C609,158.07,591.56,152.8,574,148q-20.76-5.72-41.71-10.68c-54-12.7-108.36-24.54-163.48-31.71V215.68Z"/><path class="cls-3" d="M508.59,273c-3.19,2-6.55,4.15-10.07,6.26-8.3,5.16-16.93,10.44-25.48,16.23-6.52-18.19-14.68-36.11-22.46-53.57a416.18,416.18,0,0,1,44.1-18.72c4,12.82,8.18,26.2,11.31,39.44C506.78,265.88,507.7,269.34,508.59,273Z"/><path class="cls-3" d="M556.16,245c-11.33,6.15-22.72,12.74-33.83,19.57-.3-1.33-.58-2.56-.87-3.79-3.43-14.33-7.84-28.66-12.45-42.49.51-.19,1-.38,1.52-.55,6.72-2.17,14.21-5.1,22.18-8.1,5.77-2.27,11.71-4.52,17.63-6.68C553.16,217.19,554.82,231.5,556.16,245Z"/><path class="cls-3" d="M368.82,215.68c4.79,7.31,9.69,14.52,14.47,21.84,3.89,6,7.74,12.21,11.28,18.51,3.15-1.88,6.49-3.89,9.81-5.71,8.95-5.23,18-10,27-14.62l-4.57-10c-4.87-11.11-10-22.53-15.55-33.75a439.45,439.45,0,0,0-42.44,20.28Z"/><path class="cls-3" d="M490.58,210.11a470.53,470.53,0,0,0-45.72,19l-3.24-7.19c-5.28-11.71-10.51-23.64-16.38-35.45,3.4-1.33,7.06-2.46,10.79-3.77,13.47-4.4,27.58-9,42.52-12.49.07.54.33,1,.41,1.52,1.71,5.52,3.45,10.92,4.92,16C485.8,195.21,488.18,202.67,490.58,210.11Z"/><path class="cls-3" d="M547.39,189.65c-7.57,2.56-14.87,5.39-22,8.13s-14.09,5.37-20.3,7.42c-2.08-6.46-4.11-13.11-5.83-19.66-1.43-5.36-3.16-10.86-5.05-16.39-.19-.82-.53-1.67-.74-2.47,17.65-3.53,32.66-4.53,45.69-2.84A181.8,181.8,0,0,1,547.39,189.65Z"/><path class="cls-3" d="M381.78,263.46q-6.54,3.82-13,7.66v-29c.27.41.53.82.8,1.22C373.73,249.86,378,256.57,381.78,263.46Z"/><path class="cls-3" d="M405.07,179.53c-13,5.12-25.09,10.93-36.25,16.64V140.66q5.32-1.26,10.68-2.47c1.61,2.1,3.07,4.06,4,5.36A259,259,0,0,1,405.07,179.53Z"/><path class="cls-3" d="M573.38,259c.49,5.21,1.1,10.68,2,16.34.34,2,.54,4,.87,6,1.07-.74,1.77-1.16,1.77-1.16,7-4.32,14.29-8.89,21.86-13.4a125.62,125.62,0,0,0-5.46-26.3c-7.29,3.75-14.41,7.53-21.72,11.43C573,254.37,573.1,256.73,573.38,259Z"/><path class="cls-3" d="M532.17,314.67c9-8.49,20.34-17,29.31-23.44-.5-5.17-1.18-10.27-1.85-15.25-.62-5.48-1.43-10.71-1.78-15.75-10.66,6-21.35,12.14-31.8,18.83C528.8,290.52,531.6,302.76,532.17,314.67Z"/><path class="cls-1" d="M368.82,10.62v95.8c-13-1.48-26.07-2.7-39.11-3.88-26.48-1.66-53.25-2.82-79.51-1.4L216,103l5.77-3.57,22.4-13.85c14.88-9.19,27.17-23.51,43.5-32.93,15.61-9.2,31.61-17.47,47.4-26.19A363,363,0,0,1,368.82,10.62Z"/><path class="cls-2" d="M368.82,105.57V339.82c-2.65,0-5.31,0-8-.05-64.8-1-130.29-1.64-195-13.71-32.52-6.25-61-16.34-92.9-28.73-15.24-7.15-32.12-13.08-46-22.54A172.21,172.21,0,0,1,6.76,258.93c-3-3.11-20.51-23.47,16.53-68.28q2-2,3.93-4t4-3.89q2.16-2.1,4.36-4.14c7.79-7.25,15.93-14.11,24.34-20.62q3.82-2.9,7.73-5.68,6.84-4.89,14-9.42c.88-.56,1.76-1.12,2.65-1.67,2-1.22,4-2.43,5.94-3.6l.88-.52q2-1.18,4.07-2.34a271,271,0,0,1,29.72-14.5c1.31-.54,2.62-1.07,3.94-1.58q4.25-1.68,8.56-3.19c3-1,6-2,9-2.95a395.11,395.11,0,0,1,75.47-13.12c39.54-3.15,79.51-1.25,118.76,2.89Q354.71,103.72,368.82,105.57Z"/><path class="cls-3" d="M368.82,212.24v3.44c-.56-.85-1.12-1.69-1.67-2.54Z"/><path class="cls-3" d="M368.82,242.13v29c-9.2,5.46-18.25,11-27.17,16.6-6.32-14.34-13.28-28.54-20-42.19l-2.54-5.37c-.24-.45-.52-.85-.76-1.3,4.47-2.07,8.8-4.17,13-6.41,7.66-4.25,15.16-8.38,22.83-12.46C359.06,227.31,364,234.78,368.82,242.13Z"/><path class="cls-3" d="M273.45,168.61a479.2,479.2,0,0,1,38.4,58c3.46-1.71,6.92-3.42,10.23-5.15,8-4.41,16-9,24.16-13.38-11.46-17.2-23.15-34.55-34.81-51.7C299,160.15,286.29,164.12,273.45,168.61Z"/><path class="cls-3" d="M368.82,140.67v55.5c-3.33,1.69-6.57,3.38-9.72,5-10.93-16.5-22-33-33.15-49.27C339.92,147.91,354.28,144.12,368.82,140.67Z"/><path class="cls-3" d="M279.59,111.77c-12,2.11-23.86,4.43-35.76,7.06-2.16.47-4.29.92-6.45,1.5a120.24,120.24,0,0,1,13.23,15c1.06,1.43,2.29,2.83,3.23,4,4.86,5.87,9.71,11.85,14.42,17.83,13.17-4.71,26.29-8.93,39-12.78l-1.6-2.21C298.55,131.44,290.45,119.32,279.59,111.77Z"/><path class="cls-1" d="M28.51,186.38c-7.85,11.26-17.74,20.84-23.75,34.07C2,227,.47,234.4,1.63,241.65s5,13.75,9.76,18.9C21.12,270.82,33.6,277.19,46,282.7s25.37,10,38.29,14.23,25.71,8.54,38.28,13.74c12.59,4.95,25.72,9.66,39.54,9.81,3.46-.12,6.87,0,10.32-.93,3.54-1.24,6.19-3.57,8.64-6a85.87,85.87,0,0,0,12-16.71,227.51,227.51,0,0,0,16.63-37.47c8.8-25.88,14.79-52.74,16.57-80.52.71-13.89.19-28.2-4.07-42.44a50.57,50.57,0,0,0-29.52-32.65S71.48,124.85,28.51,186.38Z"/><path class="cls-4" d="M114.84,53.77c-3.79,0-9,1.1-11.78,3.87s2.26,3.73,4.17,3.72c7.12.08,3.3,9.16,1.3,12.17s6.25,2.71,7,2.61c3.53-.41,8.23-1.53,10.31-4.69C132.94,60.74,126.16,53.88,114.84,53.77Z"/><path class="cls-4" d="M144.84,90.19l-.09-.08a4.81,4.81,0,0,0-.48.42Z"/><path class="cls-4" d="M144.75,90.11l.09.08-.57.34a4.81,4.81,0,0,1,.48-.42c-5.08-5.26-21.64.94-16.21,6.87,8.83,9.63,21.22,7.22,30-1.41C166,88.18,150.37,85.63,144.75,90.11Z"/><path class="cls-2" d="M123.76,105.9a11.28,11.28,0,0,0-3.82-1.45c-1.94,0-.68,0-1.71.22a7.45,7.45,0,0,0-1.6.72l-1.35,1a58,58,0,0,0-4.51,3.77L78.42,141.59c-10.73,10.8-22.19,20.52-29.87,36.4l-.06.14,0,.11c-1.94,7.91-1.8,18.14,2.08,26.06a50,50,0,0,0,15.28,19.23c12.88,9.18,27.61,14.78,43.13,17.73,7.93,1.19,16.53,1.34,25.11-1.33a39.52,39.52,0,0,0,21.57-16.28c5-7.59,7.47-16.19,8.62-24.26a64.61,64.61,0,0,0-2.16-25.24c-2-7.66-4.47-14.29-5.54-20.86-1.45-7.13-2.41-15.19-6.27-23.07-4.05-8.37-10.92-13.08-16.78-17.73A76.08,76.08,0,0,0,123.76,105.9Z"/><path class="cls-5" d="M120.37,111.7a8.18,8.18,0,0,0-.92-.57l-.53.32c-1.36.92-2.77,2.11-4.14,3.26a160.16,160.16,0,0,0-29.24,32.92C77.48,159.55,69.72,173,65.42,184.39c0,0,0,0,0,0l-.11.23c0-.06,0-.12.08-.19-3.51,5.8-6.14,11-6,17.51s5,12.16,10.59,16c11.43,8,26.19,11.3,40,11.72s25.64-5.12,30.88-15.23a50.07,50.07,0,0,0,5.49-17.66c1-5.81.24-12-.85-19s-3-14.53-3.12-22.8c-.34-7.57-.31-14.63-2.27-20.53-1.5-5.63-6.64-10.85-11.64-16A68.57,68.57,0,0,0,120.37,111.7Z"/><path class="cls-6" d="M65.45,184.35s0,0,0,0,0,.13-.08.19Z"/><path class="cls-4" d="M121.54,120c-7.4.09-18.2,2-23.57,7.7-6.44,6.84-11.65,16.56-12.73,25.87-.72,6.33,33.91,3.3,35.2-7.94.7-6,5.27-14,9.36-18.38C135.28,121.49,125.58,120,121.54,120Z"/><path class="cls-7" d="M111.58,130.33c.34,3.3,1.11,4.94,3.57,7,4.22,3.61,20.3-2.56,16.55-5.75a5.29,5.29,0,0,1-2.52-5.28C128.68,121.48,111,124.67,111.58,130.33Z"/><path class="cls-2" d="M111.13,91.18c-4.73-2.09-8.74-1.8-12.13-1.48-6.87,1-12.6,3.12-18.33,5.22-11.27,4.46-22.05,9.35-32.77,14.59-5.31,2.67-10.65,5.35-15.94,8.25A36.86,36.86,0,0,0,17.8,130.3c-7.19,10-12.41,23.52-8.21,37.4a30.12,30.12,0,0,0,4.91,9.63,31.18,31.18,0,0,0,7.82,7,26.49,26.49,0,0,0,20.6,2.79,34,34,0,0,0,16.55-10.33c4.3-5.09,6.75-10,10.15-15.07,13.34-19.51,26.63-39.11,48.93-51.86l3.79-2.18-3-6.68a34.43,34.43,0,0,0-2-4.3A15.89,15.89,0,0,0,111.13,91.18Z"/><path class="cls-5" d="M98.8,99.84c-5-1-10.93-.6-16.54.57-11.38,2.21-22.38,6.81-32.7,12.29a112.71,112.71,0,0,0-14.79,9.37c-4.92,3.39-8.38,7.08-10.74,12.14-5.12,9.7-7.17,21.17-4.2,30.2a22,22,0,0,0,3.09,6,19.23,19.23,0,0,0,18.44,8.36,26.86,26.86,0,0,0,14.42-5.89c4-3.33,7.9-8.46,11.85-12.68,14.54-17.46,28.91-34.94,35.51-58.41A8,8,0,0,0,98.8,99.84Z"/><path class="cls-4" d="M94,106c-8,.24-17.35,2.35-23.62,7.53-7.5,6.19-13.3,14.13-18.09,22.57-3.28,5.79,12.2,4.61,13.91,4.38,6.21-.79,17.26-2.8,20.74-9,4.09-7.19,8.74-13.67,15.18-19S97,105.89,94,106Z"/><path class="cls-7" d="M81,110.8a12.82,12.82,0,0,0-1.88,5.8c-.81,8.17,16.93,5.77,17.6-1.06.22-1,.46-1.92.68-2.89C101.79,104.49,84.19,104.9,81,110.8Z"/><path class="cls-4" d="M106.16,282.1l-6.76-.27c-10.19-.4-13.73,12.81-1.94,13.28l6.76.28C114.4,295.8,118,282.57,106.16,282.1Z"/></g></g></svg>