<svg xmlns="http://www.w3.org/2000/svg" viewBox="0 0 549.93 350.56"><defs><style>.cls-1{fill:#231f20;}.cls-2{fill:#76bcb9;}.cls-3{fill:#d86050;}.cls-4{fill:#323232;}.cls-5{fill:#dfdfd2;}.cls-6{fill:#fff;}</style></defs><g id="Layer_2" data-name="Layer 2"><g id="Layer_2-2" data-name="Layer 2"><path class="cls-1" d="M207.21,265.05c-.06-.12-.1-.26-.16-.39l-1.94-3.8Z"/><path class="cls-2" d="M227.05,274.87c-4.49-4.47-8.51-9.42-12.78-14.19-4.12-5.74-5.6-12.62-10.71-19.69-3-3.6-7.55-5.27-11.5-5.79a89.2,89.2,0,0,0-11.58-.43c-15.18.47-30.13,2.77-45,5.73-14.67,2.41-29.64,4.58-44.43,7.94a136.58,136.58,0,0,0-22.26,6.64c-7.36,2.88-15,7-20.85,15l-6.07,8.46,10.18,1c7.89.93,13.57-1.59,19-3,5.27-1.52,10.72-2.8,16.05,0A13.14,13.14,0,0,1,77,284.62c-4.41,1-9,.69-13.71.54s-9.81-.26-15.37,1.15c-5.75,1.06-12.06,6.73-13.89,13l-.94,7.76,5.79.27c6.48.47,11.58-1.43,16.17-3.13s8.78-3.34,13.65-2.94c-4.83,3.89-10.75,5.62-16.5,7.48l-17.66,5.09a118.5,118.5,0,0,0-18,6,37,37,0,0,0-9.16,5.41A17.5,17.5,0,0,0,.45,337l0,.13L0,345.45,7.57,344c37-6.79,74.6-10.58,111-20.77,18.25-4.61,35.46-12.85,52.53-20.28s34.33-15.24,52.31-18l11.8-1.74Z"/><path class="cls-2" d="M407.11,70.66c-10.44.09-53.37-.62-63.66.51-20.48,2-39.56,12.23-58.36,21.62-9.55,4.65-18.75,9.79-29.55,13-10.9,3.5-23.19,1.83-33.41-1.47-16.65-5.34-60.74-5.64-60.76-5.78,3-.65,34.32-11.5,54.48-16.79C235,77,255,79.1,273.28,74.86c4.65-1.17,8.34-2.62,9.56-6.39,1.34-3.94,3.45-10,7.54-13.49,3.71-4.12,9.84-6.28,15.08-6.21,5.2-.17,9.55.32,13.23-1.13,6.89-3.35,11.9-12.86,18-20.38a39.11,39.11,0,0,1,5.37-5.7c2.07-1.61,5.12-3.76,9-3,7,2.14,8.07,6.13,9.08,10.68,6.72-5.73,7.81-13.51,10.28-21.88.78-2.12,1.39-4.47,3.41-6.36,2.51-2.21,6-.41,7.63,1a55.15,55.15,0,0,1,9.43,10.23c5.55,7.4,9.4,16,12.84,24.48S407.11,70.66,407.11,70.66Z"/><path class="cls-3" d="M547.46,178.08c-4.61-18.87-15-35.7-27.63-50C494.38,99.77,459.63,79,422,72.52c-18.41-4.23-37-8.72-56.17-9.34-19.24-1.22-38.05,4.66-55.37,12.19s-33.93,17.2-49.82,27.57c-16.06,10-31,22.89-41.78,38.89a102.87,102.87,0,0,0-17.52,54.48c-.92,19.05-.69,38.39,4.27,57.34,2.63,9.28,6.56,19.08,14.91,25.92,8.95,7.3,20.14,6.62,29.49,6.12,9.91-.71,18.47-2.19,27.87-1.25,9,.67,18.42,2.41,28.07,3.33,38.23,1.66,76.19,3.11,114.56-2.74,18.88-3.13,37.54-7.46,56-11.85,10-2.22,19-6.8,27.45-10.07,8.2-3.31,25-10.71,30.19-9.38,0,0,3.54-12.95,6.38-19.06A77.9,77.9,0,0,0,547.46,178.08Z"/><path class="cls-2" d="M398.93,240.78a60.55,60.55,0,0,0-2.27-15.21c-3-26.38-25.28-31.61-37.48-31.29-11.47.3-21.55,7.75-29.65,14.41a144.67,144.67,0,0,0-22,22.22c-12.88,16.14-23.22,34-32,52.5-4.36,9.22-9.19,18.26-12.84,27.91-3.49,9.44-7.31,20-4,30.75.86,2.42,1.75,5.29,4.52,7.39a6.26,6.26,0,0,0,5.22.87,12.68,12.68,0,0,0,4-2.12c4.42-3.51,7.69-7.54,11.06-11.44s6.83-7.68,10.33-11a24.68,24.68,0,0,1,5.94-4.23,45.22,45.22,0,0,0,5.3,8.41c1.93,2.49,6.45,3.95,9.28,2.34a20.74,20.74,0,0,0,6.7-4.77c7.39-7.12,13.31-15.64,19.59-22.5a29.69,29.69,0,0,1,4.55-4.35,6.44,6.44,0,0,1,1-.65c1.58.84,4.64,6.66,9.62,10.13,12.68,8.67,26-1.8,30.56-10.54,5.35-9.17,7.9-19,9.85-28.85A125.17,125.17,0,0,0,398.93,240.78Z"/><path class="cls-2" d="M450.62,150.84c-11.71,8.85-20.18,31.92-21.15,46.57-1.08,16.69,3.74,33.35,19.73,41,12.95,6.23,26.47,6.75,38.68-.86,9.79-6.1,29.21-16.53,35.88-45.89,2.67-11.77,3.91-29-3-40.3C514.91,142,490.07,121,450.62,150.84Z"/><path class="cls-4" d="M485.58,127.78a25,25,0,0,0-8.46-.35c-2.85.34-6.53,1.88-7.89,4.61s1.94,3.51,3.95,3.28h3.15a10.85,10.85,0,0,0,8.84-2.43c1.34-1.07,3.53-4.46.41-5.11Z"/><path class="cls-3" d="M514.45,163.91l0,0a20.06,20.06,0,0,1,8.37,11.71,40.72,40.72,0,0,1,1.48,13.63c-.4,9.31-4.59,18.22-10.37,25.33a61.91,61.91,0,0,1-21.82,17.31,38.27,38.27,0,0,1-29.7,1.56c-10.17-3.52-18.08-13-20.41-23.06a40.72,40.72,0,0,1-.51-15.38,65.22,65.22,0,0,1,1.64-6.94,42.91,42.91,0,0,1,3-6.75,62.23,62.23,0,0,1,18.4-20.59A43.92,43.92,0,0,1,477,154.46a30.69,30.69,0,0,1,7.08-1.21,57.91,57.91,0,0,1,7.32-.36C503.67,154.09,514.45,163.91,514.45,163.91Z"/><path class="cls-5" d="M487.7,160.41c-1.87,0-22.79,3.19-32.2,25.64a30.41,30.41,0,0,0-1.67,5.2c-.35,1.51-.45,3.42-.7,5.64a32.87,32.87,0,0,0,1.4,10,20.45,20.45,0,0,0,12.41,13.69c12.14,4.31,28.82-.87,40.33-11.78,5.7-5.4,10.41-12.18,11.19-20.09,1.21-7.57-2.12-18.89-6.58-22.82C505.78,160.56,497.06,160.14,487.7,160.41Z"/><path class="cls-4" d="M491.78,187.27c1.12,13.94,21.76,8.52,24.3-1.3,2.44-9.5.33-19.23-9.84-21.15C485,160.84,491.54,184.37,491.78,187.27Z"/><path class="cls-6" d="M498.22,175.2c1.51.88,1.7,1.54,2,3.05.44,2.53,12.88-1.32,12.24-5.12a5.14,5.14,0,0,0-2.87-4c-3.19-1.87-13.77,4.64-11.33,6.07Z"/><path class="cls-5" d="M412.83,71.25c-9.95-1.31-18.7,2.89-25.53,7.58a45.55,45.55,0,0,0-9.39,8.77,16.19,16.19,0,0,0-3.39,6.86,39.36,39.36,0,0,0-.76,6.39c-.19,4-.14,7.74-.55,11.17s-1.45,6.24-3.09,6.82c-.82.43-2.36.34-4.23.09-1.71-.11-4.62-1-7.63,1.2-2.49,2.35-2.89,4.64-2.77,7.49.31,2.59,1,4.29,1.26,5.89a4.46,4.46,0,0,1-.39,3.53,23.44,23.44,0,0,1-3.08,4c-1.24,1.39-2.63,2.79-3.9,4.51-1.21,1.41-2.69,4.52-2.16,6.71.76,5.31,5.25,7.92,5.21,10.27.05,2.11-3.37,4.86-6.46,6.62a13,13,0,0,0-2.77,1.94c-.84,3.26,1.25,3.39,1.79,4.16,1.8,1.15,3.54,1.86,5.14,2.74s3.15,1.93,3.53,3.19-.5,2.71-1.84,4.22c-2.34,3.25-.79,6.62.87,9.32a6.73,6.73,0,0,1,1.06-.43c-1.37-2.74-2.38-5.78-.44-7.79,1.12-1.19,3-3.2,2.4-5.87-.76-2.51-2.77-3.64-4.38-4.7s-3.45-1.85-4.82-2.84a1.31,1.31,0,0,1-.63-.57l1.54-.87c3.09-2,7.7-3.47,8.5-9.41a6.1,6.1,0,0,0-1.07-3.52l-1.57-2.44a11.52,11.52,0,0,1-1.8-4.1c-.4-2.6,2.71-4.9,5.42-7.64a28,28,0,0,0,4.15-4.78,9.56,9.56,0,0,0,1.19-7.48c-1.4-4.36-2.28-6.78-.72-8,.46-1,5,1.73,10.49.52,6-2,7.57-7.88,8.34-11.6.84-4.1,1.08-8,1.59-11.59a30.8,30.8,0,0,1,1-4.92,6.13,6.13,0,0,1,2-3.08,35.47,35.47,0,0,1,8-6c5.94-3.27,32.31-13.9,37.57-12.24Z"/><path class="cls-5" d="M380.33,64.07C369.86,62.5,329.23,77.23,324,86.88A31.24,31.24,0,0,0,320.81,94a19,19,0,0,0-.47,3.9,8.26,8.26,0,0,1-1.84,4.71c-2,2.31-3.53,4.55-6.53,6.36-2.65,1.57-5.34,2.64-7.72,3.87s-4.51,2.39-5.61,3.85a8.06,8.06,0,0,0-1.4,2.86,10.66,10.66,0,0,0-.55,3.17,9.7,9.7,0,0,0,2.3,6.09c1.43,2.1,3.77,4.19,4.81,8,1,4-1,7.53-2.81,9.83a45.65,45.65,0,0,1-6.31,6.22c-4.27,3.7-9.35,6.74-11.86,10.93S284.2,173,288,176.63l3.07,2.74c1,1.13,2.21,1,3.37,3.69-.09,2.26-1.71,2.31-2.25,2.64-.76.27-1.5.4-2.2.59l-4.18.93c-5.26,1.28-11.27,2.94-12.37,6-1.5,3.27,1.31,8.78,3.65,13.73.92,2.71,3.09,5.09,1.88,9.9-2.79,4.84-7.13,3.75-9.56,4-2.74,0-4,.64-4.69,2.5s-.27,4.71.37,7.25c3,10.38,8.67,20.33,14.7,29.73-7.16-8.65-14-17.75-18-28.77-.85-2.79-1.74-5.76-1-9.31.58-4,5.63-6.07,8.36-5.82,2.78.07,5.52-.74,5.4-1.33.4-.77-.79-3.79-2-6-2-4.89-6.56-10.09-4.22-18,1.57-3.85,5.27-5.68,8.21-6.26a51.18,51.18,0,0,1,8.77-.85c1.41,0,2.82-.11,4.15-.26,1.19.14,3.09-1.14,2.52-.29a27.1,27.1,0,0,0-2.56-2.09l-3.28-2.79a27.73,27.73,0,0,1-5.67-6.76,9.87,9.87,0,0,1-.48-9.4c3.1-5.69,8.07-8.69,11.95-12.57,3.79-3.52,8.15-8.39,6.88-11.66-1-3.4-7.87-7.7-7.94-15.38a16.05,16.05,0,0,1,.76-5.1A13.65,13.65,0,0,1,294,113c2.42-3,5.62-4.24,8.4-5.07,5.84-1.52,10.65-2.19,13.81-7a4.06,4.06,0,0,0,1-3,20,20,0,0,1-.07-4.48,33.41,33.41,0,0,1,2.46-8.68c2.28-5.46,6-11,11.45-14.7,5.3-3.65,11.9-5.69,17.52-7.17Z"/><path class="cls-5" d="M269.61,97.21l-11.19,18.27a27,27,0,0,1-1,2.71,16,16,0,0,1-2.78,4.22,23.89,23.89,0,0,1-6.53,4.76c-3.9,2.25-6.17,3.41-7.38,6.78-1.05,2.26.35,6,2.39,9.75s4.25,8.75,3,13.81c-1.2,5.47-6,8.45-9,11-3.32,2.53-5,4.83-5.8,8.2-.82,2.91,1,5,4.29,8.45,3.2,3.11,6.11,8.62,5.26,13.73-1.34,6.54-6.31,8.72-9.74,11.1-3.61,2.33-7.54,4.27-6.84,7.2.48,2.37,4.05,5.88,7,8.66,3,3,6.69,6,8.07,11.09a4.67,4.67,0,0,1-.88,4.38,14.29,14.29,0,0,1-2.73,2.39l-5.39,3.56c-1.62,1.2-3.42,2.56-2.63,3.48.5,1.25,2.41,2.82,3.87,4.42a6.6,6.6,0,0,1,1.85,3.26l.34,3.26c.15,2.16.28,4.29.57,6.39.56,4.13,1.77,8.53,5.25,11.27-3.7-2.44-5.39-6.9-6.29-11.09-.48-2.12-.77-4.27-1.11-6.39l-.57-3.12a4.87,4.87,0,0,0-1.55-2.11c-1.44-1.51-3.41-2.3-4.79-5-.85-1.09-.08-3.57.77-4.26a16,16,0,0,1,2.62-2.38l5.22-3.76a10.33,10.33,0,0,0,2.05-1.9c.36-.43.44-.65.16-1.64-1-3.37-4.29-6.26-7.41-9-3.05-3.11-7-5.05-8.77-11.23-.71-2.48,1.26-6.14,3.06-7.45a46,46,0,0,1,5.47-4.05c3.47-2.21,6.85-5.12,7-7.43.31-3.61-1.28-6.49-4.19-9.29a34,34,0,0,1-4.69-5.28,11.7,11.7,0,0,1-1.62-8.4,16.89,16.89,0,0,1,3.07-7.27,16.59,16.59,0,0,1,6-4.51c3.9-1.89,7.85-3.48,8.31-7s-1.4-6.9-3.78-10.39S233,138.46,234.06,132c.55-5.34,5.41-10.21,8.51-12.66a11.92,11.92,0,0,0,3.08-3.78,4.22,4.22,0,0,0,.29-1.41c-.08-.19-.12-.12-.12-.4h0Z"/></g></g></svg>