<svg xmlns="http://www.w3.org/2000/svg" viewBox="0 0 724.45 441.89"><defs><style>.cls-1{fill:#4b5a6d;}.cls-2{fill:#d86050;}.cls-3{fill:#76bcb9;}.cls-4{fill:#323232;}.cls-5{fill:#dfdfd2;}.cls-6{fill:#fff;}</style></defs><g id="Layer_2" data-name="Layer 2"><g id="Layer_2-2" data-name="Layer 2"><path class="cls-1" d="M274.31,38.22C296,24.51,321.19,13.56,345.9,8.3c24.93-5.87,50.3-7,75.2-5.51,24.9,1.7,49.71,4.58,73.91,12a82.52,82.52,0,0,1,17.93,7.74c1.61,1.2,3,1.47,5.26,5l1,2.12c.49,1.77.78,4.44,0,5.89-3.59,6.4-7.64,6.3-10.72,7.67-11.3,3.18-23.16,4.31-29.54,10.58l9.94,9.71c3.85,4.32,8.27,8.39,10,15.86a11,11,0,0,1,0,3.85,6.73,6.73,0,0,1-1.48,3c-2.43,2.62-4.12,2.77-5.9,3.34a38.57,38.57,0,0,1-9.33.92c-2.55,0-5.47-.06-8.17-.12,5,4.48,12.31,8.43,18.78,11.87,4.79,2.6,9.64,5,14.52,8.15,2.45,1.87,5,2.81,7.46,7.31,1.55,2.36.28,7.2-1.67,8.51a15,15,0,0,1-4.89,3c-12,3.34-15.7,7.8-11.63,18.08,1.39,5,4.52,9,5.12,17.27.46,5.05-5.24,10.23-8.76,10.78a38.69,38.69,0,0,1-9.85,1.54l-.06,0-2.85-.22-1.37-1.6c-25.18-29.39-58.47-51.21-92.39-70.14a563.9,563.9,0,0,0-53-24.79c-18.16-6.94-36.85-13.54-55.6-17.46L246.33,56Z"/><path class="cls-2" d="M582.13,398.68c-15.61-31.21-19.52-65.33-33-94h0l-1.28-3.12,1.13-2.21,12.09-34.91s50.5,3.33,67.71,14.85c17.72,11.36,32.11,26.63,44.29,43a334.89,334.89,0,0,1,31.32,52.43c4.42,9.19,8.6,18.48,12.1,28,3.21,10.19,7.29,18,7.77,31.3l.14,4.1-4.45-.6h-.08c-13.64-4.11-19.17-11.66-27.82-18.16l-23-20.81-22.57-21.06c-5-4.55-10.13-9.16-15.32-13.36a229.16,229.16,0,0,0,11.62,22.22c6.09,10.35,11.42,21.59,14.59,33.53l2.1,7.9L652.07,424l-.11-.07c-3.4-1.76-7.18-3.47-10.1-3.58s-3.46.92-5,4.63c-1.44,3.46-1.82,8-5.66,12.77a11.89,11.89,0,0,1-8.91,4.11,17.54,17.54,0,0,1-7.86-1.8C597.26,429.46,590.59,413.5,582.13,398.68Z"/><path class="cls-3" d="M226.14,38a344.7,344.7,0,0,0-76.75,21.4C125,69.93,100.17,83.43,83,107c-8.63,11.48-13.64,27.19-15.24,39.66a177.87,177.87,0,0,0-2.39,40.6c1.37,27.31,11.38,54.67,28.7,76,35.42,43.07,88.41,62,138.74,73.43,51.22,11,103.51,14,155.41,12.51a648.24,648.24,0,0,0,77.73-6.73c25.6-4.35,52-9,75.58-23.86,11.5-7.11,22.45-19.6,23.65-35,1.35-15.12-5-28.38-11.76-39.85-14.4-22.87-33.73-40.77-53-58.16-39.53-33.6-79.66-66.25-124.11-94C332,64.43,281.65,42.77,228.61,38l-1.45-.14Z"/><path class="cls-4" d="M130.35,218.88c5.08-5.68,6-10.84,2.5-13.87s-10.34-3.17-17.92-.44l-3.84,14.76C107.49,220.25,130.35,218.88,130.35,218.88Z"/><path class="cls-2" d="M122,23l-.16.22A252.64,252.64,0,0,0,92.71,75.41c-7.06,18.56-14.17,40.2-5.44,63.86a54.6,54.6,0,0,0,24.55,27.28c11,5.93,20.28,7.75,30.19,10.68,19.65,5.09,41.45,9.27,64.76,2.25,1.35-.39,7.73-2.52,10.44-4.87a35.67,35.67,0,0,0,8.25-8.14,57.7,57.7,0,0,0,8.16-17.23c3.33-11.26,3.49-22.16,3.12-32.72a153.76,153.76,0,0,0-15.17-60.16c-8.92-18.78-23.9-35.89-42.81-44.34-9.3-4.38-20-7.1-30.63-5.34C137.65,7.8,127.7,15.41,122,23Z"/><path class="cls-5" d="M127.62,27.07c5.06-8.28,12.12-13.46,21.26-14,8.82-.52,17.73,2.67,25.43,7.39,16.07,9.47,26.62,24.86,32,42.25a150.5,150.5,0,0,1,6.94,53.77c-.73,16.78-7.07,37.74-14.2,36.82-14.59,3.55-32.79,1.4-50.67-2.36-19.44-4.68-34.15-7.8-40.9-20.82-7.07-12.85-6-32.39-1.5-50.31A234.39,234.39,0,0,1,127.62,27.07Z"/><path class="cls-4" d="M169.24,32c11.94,9.16,20.48,25.21,15.17,40-5.08,14.14-61.28,17.37-68.67,7.1-6.85-9.52,15.14-43.63,18.17-44.7,8.49-3,27-8.88,35.33-2.44Z"/><path class="cls-6" d="M156.66,41.22c-.46,1-.93,1.87-1.4,2.76-1.88,7.57-29,11.56-27.18,4.09.75-3,1.36-3.79,3.57-5.92,4.6-4.46,12-6.41,18.31-6.63,2.8-.09,11.41,1.2,6.7,5.7Z"/><path class="cls-2" d="M130.26,17.59c-6.5-3.7-22.5-20.16-41.45-17.25A57.17,57.17,0,0,0,63.57,6.67C48.42,14.36,36.26,25.78,25.89,38.33,15.74,51.1,6.93,65,2.07,81.57A51.3,51.3,0,0,0,0,95a30.29,30.29,0,0,0,.83,7.71,47.56,47.56,0,0,0,1.86,6,72.13,72.13,0,0,0,13.69,22.4C27.55,143.27,45.22,155,65.46,149.43,76,146.58,82.47,136.91,86,130.1,89.37,56,130.26,17.59,130.26,17.59Z"/><path class="cls-5" d="M112.12,22.77c-11.72,24.36-17.55,43.25-30,80-5,13.31-11.54,30.52-21,32.69-11,3.36-24.49-4-33.58-14.36-9.33-10.83-16.33-22.6-11.82-35.82,3.61-13.57,11.5-26.89,20.53-38.62S56.41,24.25,69.08,17.49C80.3,11.63,117.45,11.64,112.12,22.77Z"/><path class="cls-4" d="M100.88,36.39c-5.23,5.72-7.33,11.81-8.68,19.3-1.51,8.51-29,13.12-27.31,3.51,1.57-8.79,4.67-16.34,10.7-23,4.42-4.84,11.78-7,18.23-7,3.4,0,11.54,2.23,7.06,7.14Z"/><path class="cls-6" d="M99.93,34.42c-1.07,1.58-2.14,3.19-3.23,4.75-3.06,4.52-17,4.69-13-1.27,1.06-1.59,2.15-3.16,3.22-4.77,3-4.51,17-4.7,13,1.29Z"/><path class="cls-5" d="M238.67,63.47c56.92,8.61,121.23,41.61,171.47,75.5,23.69,16,129.85,94.1,137.49,131.55-11.56-2.49-27.28-7-33.59-17.34-12.26,12-23-11.83-27-21-2,21.57-21.09,10.17-17.65-7.23-9.79,29.66-43.1-18-20.93-22.93-16.5,16.46-32.88-3.6-26.45-21.51-10.3,25.22-33.08,14.19-32-10-5.2,21.1-21.81,6.28-17.89-10.18-5.73,3.1-13.74,1.75-15.5,0,7.21,19-12.12,25.11-20.93,10.39-10.68,10.78-34.91,4-21.88-13-18,6.66-21-14.63-9.7-24.49-11.34,2.82-18.73-6.17-15.79-17,.54,16-23.13,15.86-20.69-.77-14.37,3.22-20-19.21-14.41-29.3-6.9-3.21-9.28-6.93-8.47-9Z"/><path class="cls-6" d="M252.08,71c13.67-2.15,26.72,4,39.13,8.92,12.46,5.34,24.57,11.55,36.46,18.11,23.79,13.16,46.79,27.77,69.33,43l67.32,46c22,15.53,47.45,28.33,63.23,50.88-7-11.78-18-20.41-27.43-30.34-9.87-9.52-19.81-19.14-30.48-27.71-21.24-17.43-44.08-32.68-67.53-46.83s-47.4-27.63-72-39.62a390.6,390.6,0,0,0-37.8-16.25C279.43,73.13,265.67,67.84,252.08,71Z"/><path class="cls-1" d="M274.91,199c5.48-3,18.29-6.88,26.51-7.14,9.16-.75,17.78.34,26.15,1.74a191.23,191.23,0,0,1,46.05,16.25c28.51,14.07,56.51,29.27,78.32,51.36,36.57,37,55.28,67.77,53.14,77.7-2.38,10.35-10.39,16.28-18.68,19.54-7.25,1.38-10.41-1.48-14.17-3.05-3.37-1.83-6.88-3.82-9.57-4.34-4.05-1.28-3.11,7.08,1.42,13.05,1.91,3.18,4.08,6.3,6,9.9,1.45,2.95,5.31,9.71-1.78,14-9.24,2.54-18.44-.88-16.42,4.52,1.75,6,7.66,11.82,11,19.41,2.31,8.44,2.3,17.39-4.8,24.25-8,5.77-17.05,3.1-24.26.85-14.48-5.46-28.67-14.57-37-27.94-8.92-12.53-17.08-25.39-25.23-38.34-33.84-50.92-61.08-105.55-103-152l-9.91-11Z"/><path class="cls-1" d="M242.61,338.57l-6.1-7.14,9.1,1.5c15.88,2.56,31.43,4.69,47.63,7.65,15.51,3.8,50,8.66,50,8.66l-3.61,15.55s2.22,22.89-15.14,19.83c-4.29.08-9,.82-8.54,1.6-.87,1.56.86,4.59,3.49,7.69s5.62,6,8.41,9.7a18.67,18.67,0,0,1,3.52,7.07,9.54,9.54,0,0,1-.59,5.6l-.75,1.39a14.94,14.94,0,0,1-1.93,2.09c-4.84,4-9.92,3.95-14.39,4.16-4.48,0-9.07-.18-13.81-1.88-18.5-7.57-26.1-25.35-33.79-40C258.58,366.87,252.91,350.63,242.61,338.57Z"/></g></g></svg>